<?xml version="1.0" encoding="UTF-8"?>
<svg width="24px" height="24px" viewBox="0 0 24 24" version="1.1" xmlns="http://www.w3.org/2000/svg" xmlns:xlink="http://www.w3.org/1999/xlink">
    <title>home7</title>
    <g id="0527" stroke="none" stroke-width="1" fill="none" fill-rule="evenodd">
        <g id="0512-教师端-课堂记录-2" transform="translate(-64.000000, -218.000000)">
            <g id="编组-7" transform="translate(64.000000, 218.000000)">
                <circle id="Oval" fill="#FFB607" cx="12" cy="12" r="12"></circle>
                <g id="huati" transform="translate(6.000000, 6.000000)" fill="#FFFFFF" fill-rule="nonzero">
                    <polygon id="路径" points="5.22617985 6.55446429 6.62209821 6.55446429 6.90373087 5.12793367 5.5078125 5.12793367"></polygon>
                    <path d="M11.1098533,8.99119898 C11.7037309,7.98711735 12.0159758,6.79936224 11.924139,5.53201531 C11.7098533,2.61160714 9.37107781,0.248341837 6.45066964,0.0279336735 C2.94250638,-0.247576531 0.00985331633,2.51977041 0.00985331633,5.96670918 C0.00985331633,9.26058673 2.67924107,11.9299745 5.97311862,11.9299745 C6.95883291,11.9299745 7.92617985,11.6850765 8.78944515,11.2258929 L11.0486288,11.5565051 C11.0486288,11.5565051 11.8935268,11.746301 11.691486,11.0667092 L11.1098533,8.99119898 Z M8.92413903,4.97487245 C8.83842474,5.07283163 8.71597577,5.12793367 8.58128189,5.12793367 L7.98740434,5.12793367 L7.70577168,6.55446429 L8.21393495,6.55446429 C8.50169005,6.55446429 8.75883291,6.77487245 8.8078125,7.0565051 C8.8323023,7.19732143 8.7955676,7.32589286 8.71597577,7.42385204 C8.63026148,7.52181122 8.5078125,7.57691327 8.37311862,7.57691327 L7.50373087,7.57691327 L7.30169005,8.61772959 C7.27720026,8.74017857 7.20373087,8.8442602 7.09964923,8.90548469 C7.0323023,8.94221939 6.95271046,8.96670918 6.87311862,8.96670918 C6.81189413,8.96670918 6.75066964,8.95446429 6.68944515,8.93609694 C6.41393495,8.8442602 6.23026148,8.55038265 6.27924107,8.28711735 L6.4200574,7.57691327 L5.02413903,7.57691327 L4.82209821,8.61772959 C4.79760842,8.74017857 4.72413903,8.8442602 4.6200574,8.90548469 C4.50373087,8.97283163 4.35066964,8.98507653 4.20985332,8.92997449 C3.93434311,8.83813776 3.75066964,8.5442602 3.79964923,8.2809949 L3.94046556,7.57079082 L3.4078125,7.57079082 C3.1200574,7.57079082 2.86291454,7.35038265 2.81393495,7.06875 C2.78944515,6.92793367 2.82617985,6.79936224 2.90577168,6.70140306 C2.99148597,6.60344388 3.11393495,6.54834184 3.24862883,6.54834184 L4.13638393,6.54834184 L4.41801658,5.12181122 L3.60985332,5.12181122 C3.32209821,5.12181122 3.06495536,4.90140306 3.01597577,4.61977041 C2.99148597,4.47895408 3.02822066,4.35038265 3.1078125,4.25242347 C3.19352679,4.15446429 3.31597577,4.09936224 3.45066964,4.09936224 L4.61393495,4.09936224 L4.76699617,3.30956633 C4.79148597,3.18711735 4.86495536,3.08303571 4.96903699,3.02181122 C5.08536352,2.95446429 5.23842474,2.94221939 5.37924107,2.99732143 C5.65475128,3.08915816 5.83842474,3.38303571 5.78944515,3.64630102 L5.69760842,4.10548469 L7.09352679,4.10548469 L7.24658801,3.31568878 C7.27107781,3.1932398 7.34454719,3.08915816 7.44862883,3.02793367 C7.56495536,2.96058673 7.71801658,2.94834184 7.85883291,3.00344388 C8.13434311,3.09528061 8.31801658,3.38915816 8.26903699,3.65242347 L8.17720026,4.11160714 L8.41597577,4.11160714 C8.70373087,4.11160714 8.96087372,4.33201531 9.00985332,4.61364796 C9.04658801,4.74834184 9.00985332,4.87691327 8.92413903,4.97487245 L8.92413903,4.97487245 Z" id="形状"></path>
                </g>
            </g>
        </g>
    </g>
</svg>