<?xml version="1.0" encoding="UTF-8"?>
<svg width="24px" height="24px" viewBox="0 0 24 24" version="1.1" xmlns="http://www.w3.org/2000/svg" xmlns:xlink="http://www.w3.org/1999/xlink">
    <title>home7</title>
    <g id="开始上课" stroke="none" stroke-width="1" fill="none" fill-rule="evenodd">
        <g id="0602-学生分析-整体分析" transform="translate(-132.000000, -1759.000000)">
            <g id="编组-7" transform="translate(132.000000, 1759.000000)">
                <circle id="Oval" fill="#31CCD2" cx="12" cy="12" r="12"></circle>
                <g id="37" transform="translate(7.000000, 5.000000)" fill="#FFFFFF" fill-rule="nonzero">
                    <path d="M0.479698351,12.3421766 C0.319281684,12.2275933 0.166503906,12.1206489 0.00608723958,12.0060655 C0.0366427951,10.1039822 0.0595594618,8.20189887 0.0901150174,6.29981554 C1.67136502,5.66578776 3.05400391,4.49703776 4.23803168,2.82412109 L5.41442057,3.65675998 L5.44497613,3.67967665 L5.47553168,3.7102322 L5.50608724,3.73314887 L5.5366428,3.75606554 L5.56719835,3.7789822 L5.59775391,3.80189887 L5.62830946,3.82481554 L5.65886502,3.8477322 L5.68942057,3.87064887 L5.71997613,3.89356554 L5.75053168,3.9164822 L5.78108724,3.93939887 L5.8116428,3.96231554 L5.84219835,3.9852322 L5.87275391,4.00814887 L5.90330946,4.03106554 L5.93386502,4.0539822 L5.96442057,4.07689887 L5.99497613,4.09981554 L6.02553168,4.1227322 L6.05608724,4.14564887 L6.0866428,4.16856554 L6.11719835,4.1914822 L6.14775391,4.21439887 L6.17830946,4.23731554 L6.20886502,4.2602322 L6.78942057,4.6727322 L6.81997613,4.69564887 L6.85053168,4.71856554 L6.88108724,4.7414822 L6.9116428,4.76439887 L6.94219835,4.78731554 L6.97275391,4.8102322 L7.00330946,4.83314887 L7.03386502,4.85606554 L7.06442057,4.8789822 L7.09497613,4.90189887 L7.12553168,4.92481554 L7.15608724,4.9477322 L7.1866428,4.97064887 L7.21719835,4.99356554 L7.24775391,5.0164822 L7.27830946,5.03939887 L7.30886502,5.06231554 L7.33942057,5.0852322 L7.36997613,5.10814887 L7.40053168,5.13106554 L7.43108724,5.1539822 L7.4616428,5.17689887 L7.49219835,5.19981554 L7.49983724,5.19981554 L8.76025391,6.09356554 C7.57622613,7.7664822 6.94219835,9.45467665 6.86580946,11.1657878 C5.07830946,11.8227322 3.29844835,12.4796766 1.51858724,13.14426 C1.35817057,13.0296766 1.2053928,12.9227322 1.04497613,12.8081489 L3.32136502,9.59217665 C3.89428168,9.80606554 4.55886502,9.61509332 4.93317057,9.09564887 C5.37622613,8.46925998 5.22344835,7.60606554 4.60469835,7.17064887 C3.97830946,6.72759332 3.11511502,6.88037109 2.67969835,7.49912109 C2.31303168,8.01856554 2.35122613,8.71370443 2.74844835,9.17967665 L0.479698351,12.3421766 Z M3.79497613,13.0907878 L10.4102539,13.0907878 L10.4102539,11.6546766 L7.67553168,11.6546766 L3.79497613,13.0907878 Z M9.81442057,5.95606554 L10.9755317,4.31370443 L4.89497613,0.0130099826 L3.74150391,1.65537109 L9.81442057,5.95606554 Z" id="形状"></path>
                </g>
            </g>
        </g>
    </g>
</svg>