<?xml version="1.0" encoding="UTF-8"?>
<svg width="24px" height="24px" viewBox="0 0 24 24" version="1.1" xmlns="http://www.w3.org/2000/svg" xmlns:xlink="http://www.w3.org/1999/xlink">
    <title>home7</title>
    <g id="0527" stroke="none" stroke-width="1" fill="none" fill-rule="evenodd">
        <g id="0512-教师端-课堂记录-2" transform="translate(-64.000000, -1322.000000)">
            <g id="编组-7" transform="translate(64.000000, 1322.000000)">
                <circle id="Oval" fill="#71D516" cx="12" cy="12" r="12"></circle>
                <g id="ziliao" transform="translate(6.000000, 7.000000)" fill="#FFFFFF" fill-rule="nonzero">
                    <path d="M3.62247368,2.29879386 C3.37822818,2.29879386 3.18022807,2.49679397 3.18022807,2.74103947 C3.18022807,2.98528498 3.37822818,3.18328509 3.62247368,3.18328509 L8.39833333,3.18328509 C8.64257884,3.18328509 8.84057895,2.98528498 8.84057895,2.74103947 C8.84057895,2.49679397 8.64257884,2.29879386 8.39833333,2.29879386 L3.62247368,2.29879386 Z M11.635386,5.26384649 C11.3723684,4.95339035 10.9431754,4.77542544 10.4564386,4.77542544 L1.47959649,4.77542544 C0.994263158,4.77542544 0.565070175,4.95339035 0.300649123,5.26384649 C0.123807018,5.47212719 -0.0656666667,5.84237281 0.0311754386,6.42510965 L0.536438596,9.63858333 L0.536438596,9.64363596 C0.590052632,9.95942544 0.720578947,10.2361974 0.91454386,10.4422325 C1.13572239,10.6823123 1.44819611,10.8175408 1.77461404,10.8144951 L10.1608596,10.8144951 C10.4874542,10.8174409 10.8000452,10.6820019 11.0212105,10.4416711 C11.2148947,10.235636 11.3457018,9.95942544 11.3993158,9.64307456 L11.9042982,6.42510965 C12.0014211,5.84293421 11.8116667,5.47212719 11.635386,5.26384649 Z M7.51384211,8.55310965 L4.40563158,8.55310965 C4.0641499,8.5429275 3.79260407,8.26316415 3.79260407,7.9215307 C3.79260407,7.57989725 4.0641499,7.3001339 4.40563158,7.28995175 L7.51384211,7.28995175 C7.85532379,7.3001339 8.12686962,7.57989725 8.12686962,7.9215307 C8.12686962,8.26316415 7.85532379,8.5429275 7.51384211,8.55310965 Z" id="形状"></path>
                    <path d="M1.55426316,4.49107483 C1.77486963,4.49075848 1.96148215,4.3278618 1.99159649,4.10932018 L2.35482456,1.47774123 C2.3932807,1.20910965 2.5532807,0.896407895 2.87833333,0.896407895 L9.09166667,0.896407895 C9.37714035,0.896407895 9.56268421,1.20040789 9.61629825,1.48588158 L9.97868421,4.10903947 C10.0120151,4.35095957 10.2351501,4.52005454 10.4770702,4.48672367 C10.7189903,4.4533928 10.8880852,4.23025781 10.8547544,3.98833772 L10.491807,1.35535526 L10.489,1.33795175 C10.4329038,1.00868696 10.2859008,0.701652986 10.0645789,0.451495614 C9.81742815,0.173401536 9.46371024,0.0134834863 9.09166667,0.0116274764 L2.87833333,0.0116274764 C2.50995881,0.010319268 2.15762366,0.162235201 1.90570175,0.431004386 C1.68114035,0.668758772 1.5295614,0.996057018 1.47903509,1.35339035 L1.11580702,3.98861842 C1.09835233,4.1152866 1.13659376,4.24330812 1.22066392,4.33964971 C1.30473407,4.43599131 1.4263981,4.49121613 1.55426316,4.49107483 Z" id="路径"></path>
                </g>
            </g>
        </g>
    </g>
</svg>