<?xml version="1.0" standalone="no"?><!DOCTYPE svg PUBLIC "-//W3C//DTD SVG 1.1//EN" "http://www.w3.org/Graphics/SVG/1.1/DTD/svg11.dtd"><svg t="1595069459326" class="icon" viewBox="0 0 1024 1024" version="1.1" xmlns="http://www.w3.org/2000/svg" p-id="8021" width="24" height="24" xmlns:xlink="http://www.w3.org/1999/xlink"><defs><style type="text/css"></style></defs><path d="M512 512m-512 0a512 512 0 1 0 1024 0 512 512 0 1 0-1024 0Z" fill="#6642F4" p-id="8022"></path><path d="M256 445.098667h56.064v126.72H256v-126.72z m182.186667 183.808H381.013333s8.192 74.410667 68.565334 152.32c0 0 52.48 2.346667 60.373333-19.328 0 0 5.546667-14.336-11.136-32.810667-5.376-8.490667-52.906667-48.64-60.672-100.181333z m203.946666-329.728c-102.314667 121.856-297.472 128.981333-297.472 128.981333l0.085334 162.389333c231.168 10.538667 298.24 97.578667 298.24 97.578667 89.386667-22.272 80.042667-180.352 80.042666-180.352 6.698667-229.546667-80.853333-208.64-80.853333-208.64z" fill="#FFFFFF" p-id="8023"></path></svg>